%TF.GenerationSoftware,KiCad,Pcbnew,5.1.6+dfsg1-1*%
%TF.CreationDate,2021-08-19T04:22:28+08:00*%
%TF.ProjectId,lampblack-alert,6c616d70-626c-4616-936b-2d616c657274,rev?*%
%TF.SameCoordinates,Original*%
%TF.FileFunction,Copper,L1,Top*%
%TF.FilePolarity,Positive*%
%FSLAX46Y46*%
G04 Gerber Fmt 4.6, Leading zero omitted, Abs format (unit mm)*
G04 Created by KiCad (PCBNEW 5.1.6+dfsg1-1) date 2021-08-19 04:22:28*
%MOMM*%
%LPD*%
G01*
G04 APERTURE LIST*
%TA.AperFunction,ComponentPad*%
%ADD10O,1.400000X1.400000*%
%TD*%
%TA.AperFunction,ComponentPad*%
%ADD11C,1.400000*%
%TD*%
%TA.AperFunction,ComponentPad*%
%ADD12R,1.700000X1.700000*%
%TD*%
%TA.AperFunction,ViaPad*%
%ADD13C,1.000000*%
%TD*%
%TA.AperFunction,Conductor*%
%ADD14C,0.250000*%
%TD*%
%TA.AperFunction,NonConductor*%
%ADD15C,0.254000*%
%TD*%
G04 APERTURE END LIST*
D10*
%TO.P,R2,2*%
%TO.N,Net-(J2-Pad1)*%
X125090000Y-58420000D03*
D11*
%TO.P,R2,1*%
%TO.N,Net-(J3-Pad1)*%
X123190000Y-58420000D03*
%TD*%
D10*
%TO.P,R1,2*%
%TO.N,Net-(J3-Pad1)*%
X125090000Y-50800000D03*
D11*
%TO.P,R1,1*%
%TO.N,Net-(J1-Pad1)*%
X123190000Y-50800000D03*
%TD*%
D12*
%TO.P,J4,1*%
%TO.N,Net-(J2-Pad1)*%
X137160000Y-58420000D03*
%TD*%
%TO.P,J3,1*%
%TO.N,Net-(J3-Pad1)*%
X137160000Y-50800000D03*
%TD*%
%TO.P,J2,1*%
%TO.N,Net-(J2-Pad1)*%
X113030000Y-58420000D03*
%TD*%
%TO.P,J1,1*%
%TO.N,Net-(J1-Pad1)*%
X113030000Y-50800000D03*
%TD*%
D13*
%TO.N,*%
X140970000Y-48260000D03*
X140970000Y-60960000D03*
X109220000Y-60960000D03*
X109220000Y-48260000D03*
%TD*%
D14*
%TO.N,Net-(J1-Pad1)*%
X113030000Y-50800000D02*
X123190000Y-50800000D01*
%TO.N,Net-(J2-Pad1)*%
X125090000Y-58420000D02*
X137160000Y-58420000D01*
X114055001Y-59445001D02*
X113030000Y-58420000D01*
X124064999Y-59445001D02*
X114055001Y-59445001D01*
X125090000Y-58420000D02*
X124064999Y-59445001D01*
%TO.N,Net-(J3-Pad1)*%
X125090000Y-50800000D02*
X137160000Y-50800000D01*
X125090000Y-50800000D02*
X123820000Y-52070000D01*
X123820000Y-57790000D02*
X123190000Y-58420000D01*
X123820000Y-52070000D02*
X123820000Y-57790000D01*
%TD*%
D15*
G36*
X142113000Y-62103000D02*
G01*
X108077000Y-62103000D01*
X108077000Y-60849000D01*
X108093000Y-60849000D01*
X108093000Y-61071000D01*
X108136310Y-61288734D01*
X108221266Y-61493835D01*
X108344602Y-61678421D01*
X108501579Y-61835398D01*
X108686165Y-61958734D01*
X108891266Y-62043690D01*
X109109000Y-62087000D01*
X109331000Y-62087000D01*
X109548734Y-62043690D01*
X109753835Y-61958734D01*
X109938421Y-61835398D01*
X110095398Y-61678421D01*
X110218734Y-61493835D01*
X110303690Y-61288734D01*
X110347000Y-61071000D01*
X110347000Y-60849000D01*
X139843000Y-60849000D01*
X139843000Y-61071000D01*
X139886310Y-61288734D01*
X139971266Y-61493835D01*
X140094602Y-61678421D01*
X140251579Y-61835398D01*
X140436165Y-61958734D01*
X140641266Y-62043690D01*
X140859000Y-62087000D01*
X141081000Y-62087000D01*
X141298734Y-62043690D01*
X141503835Y-61958734D01*
X141688421Y-61835398D01*
X141845398Y-61678421D01*
X141968734Y-61493835D01*
X142053690Y-61288734D01*
X142097000Y-61071000D01*
X142097000Y-60849000D01*
X142053690Y-60631266D01*
X141968734Y-60426165D01*
X141845398Y-60241579D01*
X141688421Y-60084602D01*
X141503835Y-59961266D01*
X141298734Y-59876310D01*
X141081000Y-59833000D01*
X140859000Y-59833000D01*
X140641266Y-59876310D01*
X140436165Y-59961266D01*
X140251579Y-60084602D01*
X140094602Y-60241579D01*
X139971266Y-60426165D01*
X139886310Y-60631266D01*
X139843000Y-60849000D01*
X110347000Y-60849000D01*
X110303690Y-60631266D01*
X110218734Y-60426165D01*
X110095398Y-60241579D01*
X109938421Y-60084602D01*
X109753835Y-59961266D01*
X109548734Y-59876310D01*
X109331000Y-59833000D01*
X109109000Y-59833000D01*
X108891266Y-59876310D01*
X108686165Y-59961266D01*
X108501579Y-60084602D01*
X108344602Y-60241579D01*
X108221266Y-60426165D01*
X108136310Y-60631266D01*
X108093000Y-60849000D01*
X108077000Y-60849000D01*
X108077000Y-49950000D01*
X111549967Y-49950000D01*
X111549967Y-51650000D01*
X111562073Y-51772913D01*
X111597925Y-51891103D01*
X111656147Y-52000028D01*
X111734499Y-52095501D01*
X111829972Y-52173853D01*
X111938897Y-52232075D01*
X112057087Y-52267927D01*
X112180000Y-52280033D01*
X113880000Y-52280033D01*
X114002913Y-52267927D01*
X114121103Y-52232075D01*
X114230028Y-52173853D01*
X114325501Y-52095501D01*
X114403853Y-52000028D01*
X114462075Y-51891103D01*
X114497927Y-51772913D01*
X114510033Y-51650000D01*
X114510033Y-51552000D01*
X122096501Y-51552000D01*
X122159252Y-51645913D01*
X122344087Y-51830748D01*
X122561430Y-51975972D01*
X122802928Y-52076004D01*
X123059302Y-52127000D01*
X123068000Y-52127000D01*
X123068001Y-57093000D01*
X123059302Y-57093000D01*
X122802928Y-57143996D01*
X122561430Y-57244028D01*
X122344087Y-57389252D01*
X122159252Y-57574087D01*
X122014028Y-57791430D01*
X121913996Y-58032928D01*
X121863000Y-58289302D01*
X121863000Y-58550698D01*
X121891306Y-58693001D01*
X114510033Y-58693001D01*
X114510033Y-57570000D01*
X114497927Y-57447087D01*
X114462075Y-57328897D01*
X114403853Y-57219972D01*
X114325501Y-57124499D01*
X114230028Y-57046147D01*
X114121103Y-56987925D01*
X114002913Y-56952073D01*
X113880000Y-56939967D01*
X112180000Y-56939967D01*
X112057087Y-56952073D01*
X111938897Y-56987925D01*
X111829972Y-57046147D01*
X111734499Y-57124499D01*
X111656147Y-57219972D01*
X111597925Y-57328897D01*
X111562073Y-57447087D01*
X111549967Y-57570000D01*
X111549967Y-59270000D01*
X111562073Y-59392913D01*
X111597925Y-59511103D01*
X111656147Y-59620028D01*
X111734499Y-59715501D01*
X111829972Y-59793853D01*
X111938897Y-59852075D01*
X112057087Y-59887927D01*
X112180000Y-59900033D01*
X113446544Y-59900033D01*
X113497138Y-59950627D01*
X113520684Y-59979318D01*
X113549375Y-60002864D01*
X113635190Y-60073291D01*
X113705018Y-60110614D01*
X113765831Y-60143119D01*
X113907583Y-60186120D01*
X114018063Y-60197001D01*
X114018065Y-60197001D01*
X114055000Y-60200639D01*
X114091936Y-60197001D01*
X124028064Y-60197001D01*
X124064999Y-60200639D01*
X124101934Y-60197001D01*
X124101937Y-60197001D01*
X124212417Y-60186120D01*
X124354169Y-60143119D01*
X124484809Y-60073291D01*
X124599316Y-59979318D01*
X124622866Y-59950622D01*
X124848523Y-59724965D01*
X124959302Y-59747000D01*
X125220698Y-59747000D01*
X125477072Y-59696004D01*
X125718570Y-59595972D01*
X125935913Y-59450748D01*
X126120748Y-59265913D01*
X126183499Y-59172000D01*
X135679967Y-59172000D01*
X135679967Y-59270000D01*
X135692073Y-59392913D01*
X135727925Y-59511103D01*
X135786147Y-59620028D01*
X135864499Y-59715501D01*
X135959972Y-59793853D01*
X136068897Y-59852075D01*
X136187087Y-59887927D01*
X136310000Y-59900033D01*
X138010000Y-59900033D01*
X138132913Y-59887927D01*
X138251103Y-59852075D01*
X138360028Y-59793853D01*
X138455501Y-59715501D01*
X138533853Y-59620028D01*
X138592075Y-59511103D01*
X138627927Y-59392913D01*
X138640033Y-59270000D01*
X138640033Y-57570000D01*
X138627927Y-57447087D01*
X138592075Y-57328897D01*
X138533853Y-57219972D01*
X138455501Y-57124499D01*
X138360028Y-57046147D01*
X138251103Y-56987925D01*
X138132913Y-56952073D01*
X138010000Y-56939967D01*
X136310000Y-56939967D01*
X136187087Y-56952073D01*
X136068897Y-56987925D01*
X135959972Y-57046147D01*
X135864499Y-57124499D01*
X135786147Y-57219972D01*
X135727925Y-57328897D01*
X135692073Y-57447087D01*
X135679967Y-57570000D01*
X135679967Y-57668000D01*
X126183499Y-57668000D01*
X126120748Y-57574087D01*
X125935913Y-57389252D01*
X125718570Y-57244028D01*
X125477072Y-57143996D01*
X125220698Y-57093000D01*
X124959302Y-57093000D01*
X124702928Y-57143996D01*
X124572000Y-57198228D01*
X124572000Y-52381488D01*
X124848524Y-52104965D01*
X124959302Y-52127000D01*
X125220698Y-52127000D01*
X125477072Y-52076004D01*
X125718570Y-51975972D01*
X125935913Y-51830748D01*
X126120748Y-51645913D01*
X126183499Y-51552000D01*
X135679967Y-51552000D01*
X135679967Y-51650000D01*
X135692073Y-51772913D01*
X135727925Y-51891103D01*
X135786147Y-52000028D01*
X135864499Y-52095501D01*
X135959972Y-52173853D01*
X136068897Y-52232075D01*
X136187087Y-52267927D01*
X136310000Y-52280033D01*
X138010000Y-52280033D01*
X138132913Y-52267927D01*
X138251103Y-52232075D01*
X138360028Y-52173853D01*
X138455501Y-52095501D01*
X138533853Y-52000028D01*
X138592075Y-51891103D01*
X138627927Y-51772913D01*
X138640033Y-51650000D01*
X138640033Y-49950000D01*
X138627927Y-49827087D01*
X138592075Y-49708897D01*
X138533853Y-49599972D01*
X138455501Y-49504499D01*
X138360028Y-49426147D01*
X138251103Y-49367925D01*
X138132913Y-49332073D01*
X138010000Y-49319967D01*
X136310000Y-49319967D01*
X136187087Y-49332073D01*
X136068897Y-49367925D01*
X135959972Y-49426147D01*
X135864499Y-49504499D01*
X135786147Y-49599972D01*
X135727925Y-49708897D01*
X135692073Y-49827087D01*
X135679967Y-49950000D01*
X135679967Y-50048000D01*
X126183499Y-50048000D01*
X126120748Y-49954087D01*
X125935913Y-49769252D01*
X125718570Y-49624028D01*
X125477072Y-49523996D01*
X125220698Y-49473000D01*
X124959302Y-49473000D01*
X124702928Y-49523996D01*
X124461430Y-49624028D01*
X124244087Y-49769252D01*
X124140000Y-49873339D01*
X124035913Y-49769252D01*
X123818570Y-49624028D01*
X123577072Y-49523996D01*
X123320698Y-49473000D01*
X123059302Y-49473000D01*
X122802928Y-49523996D01*
X122561430Y-49624028D01*
X122344087Y-49769252D01*
X122159252Y-49954087D01*
X122096501Y-50048000D01*
X114510033Y-50048000D01*
X114510033Y-49950000D01*
X114497927Y-49827087D01*
X114462075Y-49708897D01*
X114403853Y-49599972D01*
X114325501Y-49504499D01*
X114230028Y-49426147D01*
X114121103Y-49367925D01*
X114002913Y-49332073D01*
X113880000Y-49319967D01*
X112180000Y-49319967D01*
X112057087Y-49332073D01*
X111938897Y-49367925D01*
X111829972Y-49426147D01*
X111734499Y-49504499D01*
X111656147Y-49599972D01*
X111597925Y-49708897D01*
X111562073Y-49827087D01*
X111549967Y-49950000D01*
X108077000Y-49950000D01*
X108077000Y-48149000D01*
X108093000Y-48149000D01*
X108093000Y-48371000D01*
X108136310Y-48588734D01*
X108221266Y-48793835D01*
X108344602Y-48978421D01*
X108501579Y-49135398D01*
X108686165Y-49258734D01*
X108891266Y-49343690D01*
X109109000Y-49387000D01*
X109331000Y-49387000D01*
X109548734Y-49343690D01*
X109753835Y-49258734D01*
X109938421Y-49135398D01*
X110095398Y-48978421D01*
X110218734Y-48793835D01*
X110303690Y-48588734D01*
X110347000Y-48371000D01*
X110347000Y-48149000D01*
X139843000Y-48149000D01*
X139843000Y-48371000D01*
X139886310Y-48588734D01*
X139971266Y-48793835D01*
X140094602Y-48978421D01*
X140251579Y-49135398D01*
X140436165Y-49258734D01*
X140641266Y-49343690D01*
X140859000Y-49387000D01*
X141081000Y-49387000D01*
X141298734Y-49343690D01*
X141503835Y-49258734D01*
X141688421Y-49135398D01*
X141845398Y-48978421D01*
X141968734Y-48793835D01*
X142053690Y-48588734D01*
X142097000Y-48371000D01*
X142097000Y-48149000D01*
X142053690Y-47931266D01*
X141968734Y-47726165D01*
X141845398Y-47541579D01*
X141688421Y-47384602D01*
X141503835Y-47261266D01*
X141298734Y-47176310D01*
X141081000Y-47133000D01*
X140859000Y-47133000D01*
X140641266Y-47176310D01*
X140436165Y-47261266D01*
X140251579Y-47384602D01*
X140094602Y-47541579D01*
X139971266Y-47726165D01*
X139886310Y-47931266D01*
X139843000Y-48149000D01*
X110347000Y-48149000D01*
X110303690Y-47931266D01*
X110218734Y-47726165D01*
X110095398Y-47541579D01*
X109938421Y-47384602D01*
X109753835Y-47261266D01*
X109548734Y-47176310D01*
X109331000Y-47133000D01*
X109109000Y-47133000D01*
X108891266Y-47176310D01*
X108686165Y-47261266D01*
X108501579Y-47384602D01*
X108344602Y-47541579D01*
X108221266Y-47726165D01*
X108136310Y-47931266D01*
X108093000Y-48149000D01*
X108077000Y-48149000D01*
X108077000Y-47117000D01*
X142113000Y-47117000D01*
X142113000Y-62103000D01*
G37*
X142113000Y-62103000D02*
X108077000Y-62103000D01*
X108077000Y-60849000D01*
X108093000Y-60849000D01*
X108093000Y-61071000D01*
X108136310Y-61288734D01*
X108221266Y-61493835D01*
X108344602Y-61678421D01*
X108501579Y-61835398D01*
X108686165Y-61958734D01*
X108891266Y-62043690D01*
X109109000Y-62087000D01*
X109331000Y-62087000D01*
X109548734Y-62043690D01*
X109753835Y-61958734D01*
X109938421Y-61835398D01*
X110095398Y-61678421D01*
X110218734Y-61493835D01*
X110303690Y-61288734D01*
X110347000Y-61071000D01*
X110347000Y-60849000D01*
X139843000Y-60849000D01*
X139843000Y-61071000D01*
X139886310Y-61288734D01*
X139971266Y-61493835D01*
X140094602Y-61678421D01*
X140251579Y-61835398D01*
X140436165Y-61958734D01*
X140641266Y-62043690D01*
X140859000Y-62087000D01*
X141081000Y-62087000D01*
X141298734Y-62043690D01*
X141503835Y-61958734D01*
X141688421Y-61835398D01*
X141845398Y-61678421D01*
X141968734Y-61493835D01*
X142053690Y-61288734D01*
X142097000Y-61071000D01*
X142097000Y-60849000D01*
X142053690Y-60631266D01*
X141968734Y-60426165D01*
X141845398Y-60241579D01*
X141688421Y-60084602D01*
X141503835Y-59961266D01*
X141298734Y-59876310D01*
X141081000Y-59833000D01*
X140859000Y-59833000D01*
X140641266Y-59876310D01*
X140436165Y-59961266D01*
X140251579Y-60084602D01*
X140094602Y-60241579D01*
X139971266Y-60426165D01*
X139886310Y-60631266D01*
X139843000Y-60849000D01*
X110347000Y-60849000D01*
X110303690Y-60631266D01*
X110218734Y-60426165D01*
X110095398Y-60241579D01*
X109938421Y-60084602D01*
X109753835Y-59961266D01*
X109548734Y-59876310D01*
X109331000Y-59833000D01*
X109109000Y-59833000D01*
X108891266Y-59876310D01*
X108686165Y-59961266D01*
X108501579Y-60084602D01*
X108344602Y-60241579D01*
X108221266Y-60426165D01*
X108136310Y-60631266D01*
X108093000Y-60849000D01*
X108077000Y-60849000D01*
X108077000Y-49950000D01*
X111549967Y-49950000D01*
X111549967Y-51650000D01*
X111562073Y-51772913D01*
X111597925Y-51891103D01*
X111656147Y-52000028D01*
X111734499Y-52095501D01*
X111829972Y-52173853D01*
X111938897Y-52232075D01*
X112057087Y-52267927D01*
X112180000Y-52280033D01*
X113880000Y-52280033D01*
X114002913Y-52267927D01*
X114121103Y-52232075D01*
X114230028Y-52173853D01*
X114325501Y-52095501D01*
X114403853Y-52000028D01*
X114462075Y-51891103D01*
X114497927Y-51772913D01*
X114510033Y-51650000D01*
X114510033Y-51552000D01*
X122096501Y-51552000D01*
X122159252Y-51645913D01*
X122344087Y-51830748D01*
X122561430Y-51975972D01*
X122802928Y-52076004D01*
X123059302Y-52127000D01*
X123068000Y-52127000D01*
X123068001Y-57093000D01*
X123059302Y-57093000D01*
X122802928Y-57143996D01*
X122561430Y-57244028D01*
X122344087Y-57389252D01*
X122159252Y-57574087D01*
X122014028Y-57791430D01*
X121913996Y-58032928D01*
X121863000Y-58289302D01*
X121863000Y-58550698D01*
X121891306Y-58693001D01*
X114510033Y-58693001D01*
X114510033Y-57570000D01*
X114497927Y-57447087D01*
X114462075Y-57328897D01*
X114403853Y-57219972D01*
X114325501Y-57124499D01*
X114230028Y-57046147D01*
X114121103Y-56987925D01*
X114002913Y-56952073D01*
X113880000Y-56939967D01*
X112180000Y-56939967D01*
X112057087Y-56952073D01*
X111938897Y-56987925D01*
X111829972Y-57046147D01*
X111734499Y-57124499D01*
X111656147Y-57219972D01*
X111597925Y-57328897D01*
X111562073Y-57447087D01*
X111549967Y-57570000D01*
X111549967Y-59270000D01*
X111562073Y-59392913D01*
X111597925Y-59511103D01*
X111656147Y-59620028D01*
X111734499Y-59715501D01*
X111829972Y-59793853D01*
X111938897Y-59852075D01*
X112057087Y-59887927D01*
X112180000Y-59900033D01*
X113446544Y-59900033D01*
X113497138Y-59950627D01*
X113520684Y-59979318D01*
X113549375Y-60002864D01*
X113635190Y-60073291D01*
X113705018Y-60110614D01*
X113765831Y-60143119D01*
X113907583Y-60186120D01*
X114018063Y-60197001D01*
X114018065Y-60197001D01*
X114055000Y-60200639D01*
X114091936Y-60197001D01*
X124028064Y-60197001D01*
X124064999Y-60200639D01*
X124101934Y-60197001D01*
X124101937Y-60197001D01*
X124212417Y-60186120D01*
X124354169Y-60143119D01*
X124484809Y-60073291D01*
X124599316Y-59979318D01*
X124622866Y-59950622D01*
X124848523Y-59724965D01*
X124959302Y-59747000D01*
X125220698Y-59747000D01*
X125477072Y-59696004D01*
X125718570Y-59595972D01*
X125935913Y-59450748D01*
X126120748Y-59265913D01*
X126183499Y-59172000D01*
X135679967Y-59172000D01*
X135679967Y-59270000D01*
X135692073Y-59392913D01*
X135727925Y-59511103D01*
X135786147Y-59620028D01*
X135864499Y-59715501D01*
X135959972Y-59793853D01*
X136068897Y-59852075D01*
X136187087Y-59887927D01*
X136310000Y-59900033D01*
X138010000Y-59900033D01*
X138132913Y-59887927D01*
X138251103Y-59852075D01*
X138360028Y-59793853D01*
X138455501Y-59715501D01*
X138533853Y-59620028D01*
X138592075Y-59511103D01*
X138627927Y-59392913D01*
X138640033Y-59270000D01*
X138640033Y-57570000D01*
X138627927Y-57447087D01*
X138592075Y-57328897D01*
X138533853Y-57219972D01*
X138455501Y-57124499D01*
X138360028Y-57046147D01*
X138251103Y-56987925D01*
X138132913Y-56952073D01*
X138010000Y-56939967D01*
X136310000Y-56939967D01*
X136187087Y-56952073D01*
X136068897Y-56987925D01*
X135959972Y-57046147D01*
X135864499Y-57124499D01*
X135786147Y-57219972D01*
X135727925Y-57328897D01*
X135692073Y-57447087D01*
X135679967Y-57570000D01*
X135679967Y-57668000D01*
X126183499Y-57668000D01*
X126120748Y-57574087D01*
X125935913Y-57389252D01*
X125718570Y-57244028D01*
X125477072Y-57143996D01*
X125220698Y-57093000D01*
X124959302Y-57093000D01*
X124702928Y-57143996D01*
X124572000Y-57198228D01*
X124572000Y-52381488D01*
X124848524Y-52104965D01*
X124959302Y-52127000D01*
X125220698Y-52127000D01*
X125477072Y-52076004D01*
X125718570Y-51975972D01*
X125935913Y-51830748D01*
X126120748Y-51645913D01*
X126183499Y-51552000D01*
X135679967Y-51552000D01*
X135679967Y-51650000D01*
X135692073Y-51772913D01*
X135727925Y-51891103D01*
X135786147Y-52000028D01*
X135864499Y-52095501D01*
X135959972Y-52173853D01*
X136068897Y-52232075D01*
X136187087Y-52267927D01*
X136310000Y-52280033D01*
X138010000Y-52280033D01*
X138132913Y-52267927D01*
X138251103Y-52232075D01*
X138360028Y-52173853D01*
X138455501Y-52095501D01*
X138533853Y-52000028D01*
X138592075Y-51891103D01*
X138627927Y-51772913D01*
X138640033Y-51650000D01*
X138640033Y-49950000D01*
X138627927Y-49827087D01*
X138592075Y-49708897D01*
X138533853Y-49599972D01*
X138455501Y-49504499D01*
X138360028Y-49426147D01*
X138251103Y-49367925D01*
X138132913Y-49332073D01*
X138010000Y-49319967D01*
X136310000Y-49319967D01*
X136187087Y-49332073D01*
X136068897Y-49367925D01*
X135959972Y-49426147D01*
X135864499Y-49504499D01*
X135786147Y-49599972D01*
X135727925Y-49708897D01*
X135692073Y-49827087D01*
X135679967Y-49950000D01*
X135679967Y-50048000D01*
X126183499Y-50048000D01*
X126120748Y-49954087D01*
X125935913Y-49769252D01*
X125718570Y-49624028D01*
X125477072Y-49523996D01*
X125220698Y-49473000D01*
X124959302Y-49473000D01*
X124702928Y-49523996D01*
X124461430Y-49624028D01*
X124244087Y-49769252D01*
X124140000Y-49873339D01*
X124035913Y-49769252D01*
X123818570Y-49624028D01*
X123577072Y-49523996D01*
X123320698Y-49473000D01*
X123059302Y-49473000D01*
X122802928Y-49523996D01*
X122561430Y-49624028D01*
X122344087Y-49769252D01*
X122159252Y-49954087D01*
X122096501Y-50048000D01*
X114510033Y-50048000D01*
X114510033Y-49950000D01*
X114497927Y-49827087D01*
X114462075Y-49708897D01*
X114403853Y-49599972D01*
X114325501Y-49504499D01*
X114230028Y-49426147D01*
X114121103Y-49367925D01*
X114002913Y-49332073D01*
X113880000Y-49319967D01*
X112180000Y-49319967D01*
X112057087Y-49332073D01*
X111938897Y-49367925D01*
X111829972Y-49426147D01*
X111734499Y-49504499D01*
X111656147Y-49599972D01*
X111597925Y-49708897D01*
X111562073Y-49827087D01*
X111549967Y-49950000D01*
X108077000Y-49950000D01*
X108077000Y-48149000D01*
X108093000Y-48149000D01*
X108093000Y-48371000D01*
X108136310Y-48588734D01*
X108221266Y-48793835D01*
X108344602Y-48978421D01*
X108501579Y-49135398D01*
X108686165Y-49258734D01*
X108891266Y-49343690D01*
X109109000Y-49387000D01*
X109331000Y-49387000D01*
X109548734Y-49343690D01*
X109753835Y-49258734D01*
X109938421Y-49135398D01*
X110095398Y-48978421D01*
X110218734Y-48793835D01*
X110303690Y-48588734D01*
X110347000Y-48371000D01*
X110347000Y-48149000D01*
X139843000Y-48149000D01*
X139843000Y-48371000D01*
X139886310Y-48588734D01*
X139971266Y-48793835D01*
X140094602Y-48978421D01*
X140251579Y-49135398D01*
X140436165Y-49258734D01*
X140641266Y-49343690D01*
X140859000Y-49387000D01*
X141081000Y-49387000D01*
X141298734Y-49343690D01*
X141503835Y-49258734D01*
X141688421Y-49135398D01*
X141845398Y-48978421D01*
X141968734Y-48793835D01*
X142053690Y-48588734D01*
X142097000Y-48371000D01*
X142097000Y-48149000D01*
X142053690Y-47931266D01*
X141968734Y-47726165D01*
X141845398Y-47541579D01*
X141688421Y-47384602D01*
X141503835Y-47261266D01*
X141298734Y-47176310D01*
X141081000Y-47133000D01*
X140859000Y-47133000D01*
X140641266Y-47176310D01*
X140436165Y-47261266D01*
X140251579Y-47384602D01*
X140094602Y-47541579D01*
X139971266Y-47726165D01*
X139886310Y-47931266D01*
X139843000Y-48149000D01*
X110347000Y-48149000D01*
X110303690Y-47931266D01*
X110218734Y-47726165D01*
X110095398Y-47541579D01*
X109938421Y-47384602D01*
X109753835Y-47261266D01*
X109548734Y-47176310D01*
X109331000Y-47133000D01*
X109109000Y-47133000D01*
X108891266Y-47176310D01*
X108686165Y-47261266D01*
X108501579Y-47384602D01*
X108344602Y-47541579D01*
X108221266Y-47726165D01*
X108136310Y-47931266D01*
X108093000Y-48149000D01*
X108077000Y-48149000D01*
X108077000Y-47117000D01*
X142113000Y-47117000D01*
X142113000Y-62103000D01*
M02*
