%TF.GenerationSoftware,KiCad,Pcbnew,5.1.6+dfsg1-1*%
%TF.CreationDate,2021-08-19T04:22:28+08:00*%
%TF.ProjectId,lampblack-alert,6c616d70-626c-4616-936b-2d616c657274,rev?*%
%TF.SameCoordinates,Original*%
%TF.FileFunction,Legend,Top*%
%TF.FilePolarity,Positive*%
%FSLAX46Y46*%
G04 Gerber Fmt 4.6, Leading zero omitted, Abs format (unit mm)*
G04 Created by KiCad (PCBNEW 5.1.6+dfsg1-1) date 2021-08-19 04:22:28*
%MOMM*%
%LPD*%
G01*
G04 APERTURE LIST*
%ADD10C,0.120000*%
%ADD11C,0.150000*%
G04 APERTURE END LIST*
D10*
%TO.C,R2*%
X124050000Y-58420000D02*
G75*
G03*
X124050000Y-58420000I-860000J0D01*
G01*
X124050000Y-58420000D02*
X124090000Y-58420000D01*
%TO.C,R1*%
X124050000Y-50800000D02*
G75*
G03*
X124050000Y-50800000I-860000J0D01*
G01*
X124050000Y-50800000D02*
X124090000Y-50800000D01*
%TO.C,J4*%
X135830000Y-57090000D02*
X137160000Y-57090000D01*
X135830000Y-58420000D02*
X135830000Y-57090000D01*
X135830000Y-59690000D02*
X138490000Y-59690000D01*
X138490000Y-59690000D02*
X138490000Y-59750000D01*
X135830000Y-59690000D02*
X135830000Y-59750000D01*
X135830000Y-59750000D02*
X138490000Y-59750000D01*
%TO.C,J3*%
X135830000Y-52130000D02*
X138490000Y-52130000D01*
X135830000Y-52070000D02*
X135830000Y-52130000D01*
X138490000Y-52070000D02*
X138490000Y-52130000D01*
X135830000Y-52070000D02*
X138490000Y-52070000D01*
X135830000Y-50800000D02*
X135830000Y-49470000D01*
X135830000Y-49470000D02*
X137160000Y-49470000D01*
%TO.C,J2*%
X111700000Y-59750000D02*
X114360000Y-59750000D01*
X111700000Y-59690000D02*
X111700000Y-59750000D01*
X114360000Y-59690000D02*
X114360000Y-59750000D01*
X111700000Y-59690000D02*
X114360000Y-59690000D01*
X111700000Y-58420000D02*
X111700000Y-57090000D01*
X111700000Y-57090000D02*
X113030000Y-57090000D01*
%TO.C,J1*%
X111700000Y-52130000D02*
X114360000Y-52130000D01*
X111700000Y-52070000D02*
X111700000Y-52130000D01*
X114360000Y-52070000D02*
X114360000Y-52130000D01*
X111700000Y-52070000D02*
X114360000Y-52070000D01*
X111700000Y-50800000D02*
X111700000Y-49470000D01*
X111700000Y-49470000D02*
X113030000Y-49470000D01*
%TO.C,R2*%
D11*
X125563333Y-57012380D02*
X125230000Y-56536190D01*
X124991904Y-57012380D02*
X124991904Y-56012380D01*
X125372857Y-56012380D01*
X125468095Y-56060000D01*
X125515714Y-56107619D01*
X125563333Y-56202857D01*
X125563333Y-56345714D01*
X125515714Y-56440952D01*
X125468095Y-56488571D01*
X125372857Y-56536190D01*
X124991904Y-56536190D01*
X125944285Y-56107619D02*
X125991904Y-56060000D01*
X126087142Y-56012380D01*
X126325238Y-56012380D01*
X126420476Y-56060000D01*
X126468095Y-56107619D01*
X126515714Y-56202857D01*
X126515714Y-56298095D01*
X126468095Y-56440952D01*
X125896666Y-57012380D01*
X126515714Y-57012380D01*
%TO.C,R1*%
X123023333Y-48712380D02*
X122690000Y-48236190D01*
X122451904Y-48712380D02*
X122451904Y-47712380D01*
X122832857Y-47712380D01*
X122928095Y-47760000D01*
X122975714Y-47807619D01*
X123023333Y-47902857D01*
X123023333Y-48045714D01*
X122975714Y-48140952D01*
X122928095Y-48188571D01*
X122832857Y-48236190D01*
X122451904Y-48236190D01*
X123975714Y-48712380D02*
X123404285Y-48712380D01*
X123690000Y-48712380D02*
X123690000Y-47712380D01*
X123594761Y-47855238D01*
X123499523Y-47950476D01*
X123404285Y-47998095D01*
%TO.C,J4*%
X136826666Y-55542380D02*
X136826666Y-56256666D01*
X136779047Y-56399523D01*
X136683809Y-56494761D01*
X136540952Y-56542380D01*
X136445714Y-56542380D01*
X137731428Y-55875714D02*
X137731428Y-56542380D01*
X137493333Y-55494761D02*
X137255238Y-56209047D01*
X137874285Y-56209047D01*
%TO.C,J3*%
X136826666Y-47922380D02*
X136826666Y-48636666D01*
X136779047Y-48779523D01*
X136683809Y-48874761D01*
X136540952Y-48922380D01*
X136445714Y-48922380D01*
X137207619Y-47922380D02*
X137826666Y-47922380D01*
X137493333Y-48303333D01*
X137636190Y-48303333D01*
X137731428Y-48350952D01*
X137779047Y-48398571D01*
X137826666Y-48493809D01*
X137826666Y-48731904D01*
X137779047Y-48827142D01*
X137731428Y-48874761D01*
X137636190Y-48922380D01*
X137350476Y-48922380D01*
X137255238Y-48874761D01*
X137207619Y-48827142D01*
%TO.C,J2*%
X112696666Y-55542380D02*
X112696666Y-56256666D01*
X112649047Y-56399523D01*
X112553809Y-56494761D01*
X112410952Y-56542380D01*
X112315714Y-56542380D01*
X113125238Y-55637619D02*
X113172857Y-55590000D01*
X113268095Y-55542380D01*
X113506190Y-55542380D01*
X113601428Y-55590000D01*
X113649047Y-55637619D01*
X113696666Y-55732857D01*
X113696666Y-55828095D01*
X113649047Y-55970952D01*
X113077619Y-56542380D01*
X113696666Y-56542380D01*
%TO.C,J1*%
X112696666Y-47922380D02*
X112696666Y-48636666D01*
X112649047Y-48779523D01*
X112553809Y-48874761D01*
X112410952Y-48922380D01*
X112315714Y-48922380D01*
X113696666Y-48922380D02*
X113125238Y-48922380D01*
X113410952Y-48922380D02*
X113410952Y-47922380D01*
X113315714Y-48065238D01*
X113220476Y-48160476D01*
X113125238Y-48208095D01*
%TD*%
M02*
